<svg width="1440" height="900" viewBox="0 0 1440 900" fill="none" xmlns="http://www.w3.org/2000/svg" role="img" aria-labelledby="title desc">
  <title id="title">EFATA Transfer Checklist app preview</title>
  <desc id="desc">A dashboard-style preview showing transfer workflow progress, finance summary, and recipient status tracking.</desc>
  <defs>
    <linearGradient id="bg" x1="0" y1="0" x2="1440" y2="900" gradientUnits="userSpaceOnUse">
      <stop stop-color="#04121E" />
      <stop offset="0.5" stop-color="#0A2231" />
      <stop offset="1" stop-color="#12263A" />
    </linearGradient>
    <linearGradient id="windowStroke" x1="236" y1="84" x2="1204" y2="816" gradientUnits="userSpaceOnUse">
      <stop stop-color="#4DA1FF" stop-opacity="0.5" />
      <stop offset="1" stop-color="#15DDB3" stop-opacity="0.5" />
    </linearGradient>
    <linearGradient id="header" x1="236" y1="84" x2="1204" y2="84" gradientUnits="userSpaceOnUse">
      <stop stop-color="#0F2E45" />
      <stop offset="1" stop-color="#103A4A" />
    </linearGradient>
    <filter id="blurGlow" x="0" y="0" width="1440" height="900" filterUnits="userSpaceOnUse" color-interpolation-filters="sRGB">
      <feGaussianBlur stdDeviation="80" />
    </filter>
  </defs>

  <rect width="1440" height="900" fill="url(#bg)" />

  <circle cx="1210" cy="120" r="180" fill="#15DDB3" fill-opacity="0.24" filter="url(#blurGlow)" />
  <circle cx="250" cy="740" r="220" fill="#4DA1FF" fill-opacity="0.2" filter="url(#blurGlow)" />

  <rect x="236" y="84" width="968" height="732" rx="24" fill="#071722" stroke="url(#windowStroke)" stroke-width="1.5" />
  <rect x="236" y="84" width="968" height="58" rx="24" fill="url(#header)" />
  <rect x="236" y="116" width="968" height="26" fill="url(#header)" />

  <circle cx="270" cy="113" r="6" fill="#FF6D6D" />
  <circle cx="292" cy="113" r="6" fill="#FFCC4D" />
  <circle cx="314" cy="113" r="6" fill="#5FE18E" />

  <text x="345" y="118" fill="#D5ECFF" font-family="Segoe UI, Arial, sans-serif" font-size="16" font-weight="700">EFATA Transfer Checklist</text>
  <text x="1072" y="118" fill="#83D6C2" font-family="Segoe UI, Arial, sans-serif" font-size="12" text-anchor="end">Secure Google SSO</text>

  <rect x="260" y="168" width="220" height="624" rx="16" fill="#0B1C2A" stroke="#1E3A4B" />
  <text x="282" y="203" fill="#A9D4FF" font-family="Segoe UI, Arial, sans-serif" font-size="12">WORKSPACE</text>
  <text x="282" y="228" fill="#E8F7FF" font-family="Segoe UI, Arial, sans-serif" font-size="18" font-weight="700">Operations</text>

  <rect x="278" y="257" width="184" height="44" rx="12" fill="#163347" stroke="#2E6E94" />
  <text x="300" y="284" fill="#DDF4FF" font-family="Segoe UI, Arial, sans-serif" font-size="14" font-weight="600">Dashboard</text>

  <rect x="278" y="313" width="184" height="44" rx="12" fill="#0D2537" />
  <text x="300" y="340" fill="#ACCCE5" font-family="Segoe UI, Arial, sans-serif" font-size="14">Transfer Batches</text>

  <rect x="278" y="369" width="184" height="44" rx="12" fill="#0D2537" />
  <text x="300" y="396" fill="#ACCCE5" font-family="Segoe UI, Arial, sans-serif" font-size="14">Recipients</text>

  <rect x="278" y="425" width="184" height="44" rx="12" fill="#0D2537" />
  <text x="300" y="452" fill="#ACCCE5" font-family="Segoe UI, Arial, sans-serif" font-size="14">Finance</text>

  <rect x="278" y="481" width="184" height="44" rx="12" fill="#0D2537" />
  <text x="300" y="508" fill="#ACCCE5" font-family="Segoe UI, Arial, sans-serif" font-size="14">Reconciliation</text>

  <rect x="278" y="706" width="184" height="62" rx="12" fill="#0D2537" stroke="#1F415A" />
  <text x="300" y="735" fill="#D5ECFF" font-family="Segoe UI, Arial, sans-serif" font-size="13" font-weight="600">March Batch Active</text>
  <text x="300" y="753" fill="#81B7DA" font-family="Segoe UI, Arial, sans-serif" font-size="12">42 recipients in progress</text>

  <text x="520" y="198" fill="#9FCCEC" font-family="Segoe UI, Arial, sans-serif" font-size="12">TODAY SNAPSHOT</text>
  <text x="520" y="229" fill="#F1FAFF" font-family="Segoe UI, Arial, sans-serif" font-size="30" font-weight="700">Monthly Transfer Control Center</text>
  <text x="520" y="256" fill="#9CC4DE" font-family="Segoe UI, Arial, sans-serif" font-size="14">Track attendance-driven payouts, proof uploads, WhatsApp notifications, and finance integrity in one place.</text>

  <rect x="520" y="280" width="152" height="84" rx="14" fill="#132A3B" stroke="#2E4F64" />
  <text x="536" y="305" fill="#8FBCD8" font-family="Segoe UI, Arial, sans-serif" font-size="12">Active Batch</text>
  <text x="536" y="341" fill="#E8F7FF" font-family="Segoe UI, Arial, sans-serif" font-size="32" font-weight="700">1</text>

  <rect x="688" y="280" width="152" height="84" rx="14" fill="#0F322E" stroke="#1F6A60" />
  <text x="704" y="305" fill="#88D8C6" font-family="Segoe UI, Arial, sans-serif" font-size="12">Transferred</text>
  <text x="704" y="341" fill="#D6FFF4" font-family="Segoe UI, Arial, sans-serif" font-size="32" font-weight="700">35</text>

  <rect x="856" y="280" width="152" height="84" rx="14" fill="#112E3E" stroke="#2A5A74" />
  <text x="872" y="305" fill="#93CAE7" font-family="Segoe UI, Arial, sans-serif" font-size="12">WA Notified</text>
  <text x="872" y="341" fill="#E5F6FF" font-family="Segoe UI, Arial, sans-serif" font-size="32" font-weight="700">33</text>

  <rect x="1024" y="280" width="152" height="84" rx="14" fill="#2B2E11" stroke="#7A7F27" />
  <text x="1040" y="305" fill="#D8DD89" font-family="Segoe UI, Arial, sans-serif" font-size="12">Net Cash</text>
  <text x="1040" y="341" fill="#F4F6D0" font-family="Segoe UI, Arial, sans-serif" font-size="24" font-weight="700">Rp18.4M</text>

  <rect x="520" y="386" width="468" height="380" rx="16" fill="#0B1F2E" stroke="#23485E" />
  <text x="544" y="418" fill="#E8F7FF" font-family="Segoe UI, Arial, sans-serif" font-size="18" font-weight="700">Transfer Checklist</text>
  <text x="544" y="440" fill="#86B2CC" font-family="Segoe UI, Arial, sans-serif" font-size="12">Attendance, payout amount, transfer proof, and notification status per recipient.</text>

  <rect x="544" y="458" width="420" height="36" rx="10" fill="#102D41" />
  <text x="562" y="481" fill="#7DB0D1" font-family="Segoe UI, Arial, sans-serif" font-size="12">Recipient</text>
  <text x="712" y="481" fill="#7DB0D1" font-family="Segoe UI, Arial, sans-serif" font-size="12">Amount</text>
  <text x="800" y="481" fill="#7DB0D1" font-family="Segoe UI, Arial, sans-serif" font-size="12">Transfer</text>
  <text x="878" y="481" fill="#7DB0D1" font-family="Segoe UI, Arial, sans-serif" font-size="12">WA</text>

  <rect x="544" y="504" width="420" height="48" rx="10" fill="#0F2737" />
  <text x="562" y="532" fill="#D8EEFF" font-family="Segoe UI, Arial, sans-serif" font-size="13">Maria Silalahi</text>
  <text x="712" y="532" fill="#D8EEFF" font-family="Segoe UI, Arial, sans-serif" font-size="13">Rp500k</text>
  <rect x="790" y="516" width="70" height="24" rx="12" fill="#1A6B5F" />
  <text x="825" y="532" fill="#DBFFF6" font-family="Segoe UI, Arial, sans-serif" font-size="12" text-anchor="middle">Done</text>
  <rect x="876" y="516" width="70" height="24" rx="12" fill="#1D5C77" />
  <text x="911" y="532" fill="#DEEEFF" font-family="Segoe UI, Arial, sans-serif" font-size="12" text-anchor="middle">Sent</text>

  <rect x="544" y="560" width="420" height="48" rx="10" fill="#0F2737" />
  <text x="562" y="588" fill="#D8EEFF" font-family="Segoe UI, Arial, sans-serif" font-size="13">Johan Purba</text>
  <text x="712" y="588" fill="#D8EEFF" font-family="Segoe UI, Arial, sans-serif" font-size="13">Rp450k</text>
  <rect x="790" y="572" width="70" height="24" rx="12" fill="#1A6B5F" />
  <text x="825" y="588" fill="#DBFFF6" font-family="Segoe UI, Arial, sans-serif" font-size="12" text-anchor="middle">Done</text>
  <rect x="876" y="572" width="70" height="24" rx="12" fill="#345061" />
  <text x="911" y="588" fill="#D8E4EE" font-family="Segoe UI, Arial, sans-serif" font-size="12" text-anchor="middle">Pending</text>

  <rect x="544" y="616" width="420" height="48" rx="10" fill="#0F2737" />
  <text x="562" y="644" fill="#D8EEFF" font-family="Segoe UI, Arial, sans-serif" font-size="13">Ruth Simanjuntak</text>
  <text x="712" y="644" fill="#D8EEFF" font-family="Segoe UI, Arial, sans-serif" font-size="13">Rp550k</text>
  <rect x="790" y="628" width="70" height="24" rx="12" fill="#395062" />
  <text x="825" y="644" fill="#D5E3ED" font-family="Segoe UI, Arial, sans-serif" font-size="12" text-anchor="middle">Queue</text>
  <rect x="876" y="628" width="70" height="24" rx="12" fill="#3A4650" />
  <text x="911" y="644" fill="#D0DBE3" font-family="Segoe UI, Arial, sans-serif" font-size="12" text-anchor="middle">Hold</text>

  <rect x="544" y="677" width="170" height="64" rx="12" fill="#0F322E" stroke="#2A6B62" />
  <text x="560" y="702" fill="#91D8C8" font-family="Segoe UI, Arial, sans-serif" font-size="12">Total Transfer</text>
  <text x="560" y="728" fill="#E6FFF8" font-family="Segoe UI, Arial, sans-serif" font-size="22" font-weight="700">Rp21.9M</text>

  <rect x="730" y="677" width="170" height="64" rx="12" fill="#2B2E11" stroke="#6D7B2A" />
  <text x="746" y="702" fill="#D0D887" font-family="Segoe UI, Arial, sans-serif" font-size="12">Transfer Fee</text>
  <text x="746" y="728" fill="#F1F5D1" font-family="Segoe UI, Arial, sans-serif" font-size="22" font-weight="700">Rp120k</text>

  <rect x="1008" y="386" width="168" height="380" rx="16" fill="#0B1F2E" stroke="#23485E" />
  <text x="1028" y="418" fill="#E8F7FF" font-family="Segoe UI, Arial, sans-serif" font-size="16" font-weight="700">Finance Pulse</text>

  <rect x="1028" y="438" width="128" height="62" rx="10" fill="#112E3E" />
  <text x="1040" y="460" fill="#90C5E2" font-family="Segoe UI, Arial, sans-serif" font-size="11">Income</text>
  <text x="1040" y="485" fill="#EAF8FF" font-family="Segoe UI, Arial, sans-serif" font-size="18" font-weight="700">Rp38.7M</text>

  <rect x="1028" y="510" width="128" height="62" rx="10" fill="#2A2910" />
  <text x="1040" y="532" fill="#D5CD81" font-family="Segoe UI, Arial, sans-serif" font-size="11">Expense</text>
  <text x="1040" y="557" fill="#FAF3CB" font-family="Segoe UI, Arial, sans-serif" font-size="18" font-weight="700">Rp20.3M</text>

  <rect x="1028" y="582" width="128" height="62" rx="10" fill="#0F322E" />
  <text x="1040" y="604" fill="#8ED6C5" font-family="Segoe UI, Arial, sans-serif" font-size="11">Reconciled</text>
  <text x="1040" y="629" fill="#E5FFF8" font-family="Segoe UI, Arial, sans-serif" font-size="18" font-weight="700">97%</text>

  <text x="1028" y="682" fill="#8DB5CF" font-family="Segoe UI, Arial, sans-serif" font-size="11">Latest activity</text>
  <text x="1028" y="705" fill="#D8EEFF" font-family="Segoe UI, Arial, sans-serif" font-size="12">09:22  Batch payout exported to PDF</text>
  <text x="1028" y="726" fill="#D8EEFF" font-family="Segoe UI, Arial, sans-serif" font-size="12">09:47  3 transfer proofs uploaded</text>
  <text x="1028" y="747" fill="#D8EEFF" font-family="Segoe UI, Arial, sans-serif" font-size="12">10:05  Reconciliation auto-match 12 items</text>
</svg>
